<svg xmlns="http://www.w3.org/2000/svg" xmlns:xlink="http://www.w3.org/1999/xlink" version="1.1" data-diagram-type="CLASS" style="width:1184px;height:627px;background:#FFFFFF;" width="1184px" height="627px" viewBox="0 0 1184 627" zoomAndPan="magnify" preserveAspectRatio="none" contentStyleType="text/css"><?plantuml 1.2026.8?><defs/><g font-family="sans-serif" lengthAdjust="spacing"><g class="title" data-source-line="1"><text x="375.257" y="22.995" fill="#000" font-size="14" textLength="426.911" font-weight="700" font-family="Arial">Adapter Pattern: Plugging Devices into Power Outlets</text></g><!--class Main--><g class="entity" data-qualified-name="Main" id="ent0001" data-source-line="17"><rect x="369.5" y="44.297" width="209.716" height="72.563" fill="#F2F2F2" style="stroke:#333;stroke-width:0.5;"/><ellipse cx="447.332" cy="64.43" rx="11" ry="11" fill="#ADD1B2" style="stroke:#181818;stroke-width:1;"/><path d="M450.3,70.07 Q449.722,70.367 449.082,70.508 Q448.441,70.664 447.738,70.664 Q445.238,70.664 443.91,69.023 Q442.597,67.367 442.597,64.242 Q442.597,61.117 443.91,59.461 Q445.238,57.805 447.738,57.805 Q448.441,57.805 449.082,57.961 Q449.738,58.117 450.3,58.414 L450.3,61.133 Q449.675,60.555 449.082,60.289 Q448.488,60.008 447.863,60.008 Q446.519,60.008 445.832,61.086 Q445.144,62.148 445.144,64.242 Q445.144,66.336 445.832,67.414 Q446.519,68.477 447.863,68.477 Q448.488,68.477 449.082,68.211 Q449.675,67.93 450.3,67.352 L450.3,70.07 Z " fill="#000"/><text x="465.832" y="60.436" fill="#000" font-size="12" textLength="49.553" font-style="italic" font-family="Arial">«Client»</text><text x="473.897" y="76.261" fill="#000" font-size="14" textLength="33.421" font-family="Arial">Main</text><line x1="370.5" y1="84.563" x2="578.216" y2="84.563" style="stroke:#333;stroke-width:0.5;"/><line x1="370.5" y1="92.563" x2="578.216" y2="92.563" style="stroke:#333;stroke-width:0.5;"/><text x="375.5" y="109.558" fill="#000" font-size="14" textLength="197.716" text-decoration="underline" font-family="Arial">+main(args : String[]) : void</text></g><!--class PowerOutlet--><g class="entity" data-qualified-name="PowerOutlet" id="ent0002" data-source-line="21"><rect x="414" y="204.297" width="121.437" height="72.563" fill="#DCEBFA" style="stroke:#333;stroke-width:0.5;"/><ellipse cx="430.456" cy="224.43" rx="11" ry="11" fill="#B4A7E5" style="stroke:#181818;stroke-width:1;"/><path d="M426.378,220.195 L426.378,218.039 L433.768,218.039 L433.768,220.195 L431.3,220.195 L431.3,228.273 L433.768,228.273 L433.768,230.43 L426.378,230.43 L426.378,228.273 L428.847,228.273 L428.847,220.195 L426.378,220.195 Z " fill="#000"/><text x="460.813" y="220.436" fill="#000" font-size="12" textLength="54.135" font-style="italic" font-family="Arial">«Target»</text><text x="444.779" y="236.261" fill="#000" font-size="14" textLength="86.201" font-style="italic" font-family="Arial">PowerOutlet</text><line x1="415" y1="244.563" x2="534.437" y2="244.563" style="stroke:#333;stroke-width:0.5;"/><line x1="415" y1="252.563" x2="534.437" y2="252.563" style="stroke:#333;stroke-width:0.5;"/><text x="420" y="269.558" fill="#000" font-size="14" textLength="109.437" font-family="Arial">+plugIn() : void</text></g><!--class LaptopAdapter--><g class="entity" data-qualified-name="LaptopAdapter" id="ent0003" data-source-line="25"><rect x="7" y="348.297" width="244.771" height="105.156" fill="#DFF2DF" style="stroke:#333;stroke-width:0.5;"/><ellipse cx="73.138" cy="368.43" rx="11" ry="11" fill="#ADD1B2" style="stroke:#181818;stroke-width:1;"/><path d="M76.106,374.07 Q75.528,374.367 74.888,374.508 Q74.247,374.664 73.544,374.664 Q71.044,374.664 69.716,373.023 Q68.403,371.367 68.403,368.242 Q68.403,365.117 69.716,363.461 Q71.044,361.805 73.544,361.805 Q74.247,361.805 74.888,361.961 Q75.544,362.117 76.106,362.414 L76.106,365.133 Q75.481,364.555 74.888,364.289 Q74.294,364.008 73.669,364.008 Q72.325,364.008 71.638,365.086 Q70.95,366.148 70.95,368.242 Q70.95,370.336 71.638,371.414 Q72.325,372.477 73.669,372.477 Q74.294,372.477 74.888,372.211 Q75.481,371.93 76.106,371.352 L76.106,374.07 Z " fill="#000"/><text x="114.32" y="364.436" fill="#000" font-size="12" textLength="62.631" font-style="italic" font-family="Arial">«Adapter»</text><text x="93.638" y="380.261" fill="#000" font-size="14" textLength="103.995" font-family="Arial">LaptopAdapter</text><line x1="8" y1="388.563" x2="250.771" y2="388.563" style="stroke:#333;stroke-width:0.5;"/><text x="13" y="405.558" fill="#000" font-size="14" textLength="111.173" font-family="Arial">-laptop : Laptop</text><line x1="8" y1="412.859" x2="250.771" y2="412.859" style="stroke:#333;stroke-width:0.5;"/><text x="13" y="429.854" fill="#000" font-size="14" textLength="232.771" font-family="Arial">+LaptopAdapter(laptop : Laptop)</text><text x="13" y="446.151" fill="#000" font-size="14" textLength="109.437" font-family="Arial">+plugIn() : void</text></g><!--class RefrigeratorAdapter--><g class="entity" data-qualified-name="RefrigeratorAdapter" id="ent0004" data-source-line="31"><rect x="297.5" y="348.297" width="353.77" height="105.156" fill="#DFF2DF" style="stroke:#333;stroke-width:0.5;"/><ellipse cx="399.96" cy="368.43" rx="11" ry="11" fill="#ADD1B2" style="stroke:#181818;stroke-width:1;"/><path d="M402.929,374.07 Q402.351,374.367 401.71,374.508 Q401.07,374.664 400.367,374.664 Q397.867,374.664 396.539,373.023 Q395.226,371.367 395.226,368.242 Q395.226,365.117 396.539,363.461 Q397.867,361.805 400.367,361.805 Q401.07,361.805 401.71,361.961 Q402.367,362.117 402.929,362.414 L402.929,365.133 Q402.304,364.555 401.71,364.289 Q401.117,364.008 400.492,364.008 Q399.148,364.008 398.46,365.086 Q397.773,366.148 397.773,368.242 Q397.773,370.336 398.46,371.414 Q399.148,372.477 400.492,372.477 Q401.117,372.477 401.71,372.211 Q402.304,371.93 402.929,371.352 L402.929,374.07 Z " fill="#000"/><text x="459.319" y="364.436" fill="#000" font-size="12" textLength="62.631" font-style="italic" font-family="Arial">«Adapter»</text><text x="420.46" y="380.261" fill="#000" font-size="14" textLength="140.349" font-family="Arial">RefrigeratorAdapter</text><line x1="298.5" y1="388.563" x2="650.27" y2="388.563" style="stroke:#333;stroke-width:0.5;"/><text x="303.5" y="405.558" fill="#000" font-size="14" textLength="183.818" font-family="Arial">-refrigerator : Refrigerator</text><line x1="298.5" y1="412.859" x2="650.27" y2="412.859" style="stroke:#333;stroke-width:0.5;"/><text x="303.5" y="429.854" fill="#000" font-size="14" textLength="341.77" font-family="Arial">+RefrigeratorAdapter(refrigerator : Refrigerator)</text><text x="303.5" y="446.151" fill="#000" font-size="14" textLength="109.437" font-family="Arial">+plugIn() : void</text></g><!--class SmartphoneAdapter--><g class="entity" data-qualified-name="SmartphoneAdapter" id="ent0005" data-source-line="37"><rect x="696" y="348.297" width="473.426" height="105.156" fill="#DFF2DF" style="stroke:#333;stroke-width:0.5;"/><ellipse cx="857.489" cy="368.43" rx="11" ry="11" fill="#ADD1B2" style="stroke:#181818;stroke-width:1;"/><path d="M860.458,374.07 Q859.879,374.367 859.239,374.508 Q858.598,374.664 857.895,374.664 Q855.395,374.664 854.067,373.023 Q852.754,371.367 852.754,368.242 Q852.754,365.117 854.067,363.461 Q855.395,361.805 857.895,361.805 Q858.598,361.805 859.239,361.961 Q859.895,362.117 860.458,362.414 L860.458,365.133 Q859.833,364.555 859.239,364.289 Q858.645,364.008 858.02,364.008 Q856.676,364.008 855.989,365.086 Q855.301,366.148 855.301,368.242 Q855.301,370.336 855.989,371.414 Q856.676,372.477 858.02,372.477 Q858.645,372.477 859.239,372.211 Q859.833,371.93 860.458,371.352 L860.458,374.07 Z " fill="#000"/><text x="917.647" y="364.436" fill="#000" font-size="12" textLength="62.631" font-style="italic" font-family="Arial">«Adapter»</text><text x="877.989" y="380.261" fill="#000" font-size="14" textLength="141.948" font-family="Arial">SmartphoneAdapter</text><line x1="697" y1="388.563" x2="1168.426" y2="388.563" style="stroke:#333;stroke-width:0.5;"/><text x="702" y="405.558" fill="#000" font-size="14" textLength="301.875" font-family="Arial">-smartphoneCharger : SmartphoneCharger</text><line x1="697" y1="412.859" x2="1168.426" y2="412.859" style="stroke:#333;stroke-width:0.5;"/><text x="702" y="429.854" fill="#000" font-size="14" textLength="461.426" font-family="Arial">+SmartphoneAdapter(smartphoneCharger : SmartphoneCharger)</text><text x="702" y="446.151" fill="#000" font-size="14" textLength="109.437" font-family="Arial">+plugIn() : void</text></g><!--class Laptop--><g class="entity" data-qualified-name="Laptop" id="ent0006" data-source-line="43"><rect x="66.5" y="540.297" width="126.304" height="72.563" fill="#FDEBD0" style="stroke:#333;stroke-width:0.5;"/><ellipse cx="96.451" cy="560.43" rx="11" ry="11" fill="#ADD1B2" style="stroke:#181818;stroke-width:1;"/><path d="M99.419,566.07 Q98.841,566.367 98.201,566.508 Q97.56,566.664 96.857,566.664 Q94.357,566.664 93.029,565.023 Q91.716,563.367 91.716,560.242 Q91.716,557.117 93.029,555.461 Q94.357,553.805 96.857,553.805 Q97.56,553.805 98.201,553.961 Q98.857,554.117 99.419,554.414 L99.419,557.133 Q98.794,556.555 98.201,556.289 Q97.607,556.008 96.982,556.008 Q95.638,556.008 94.951,557.086 Q94.263,558.148 94.263,560.242 Q94.263,562.336 94.951,563.414 Q95.638,564.477 96.982,564.477 Q97.607,564.477 98.201,564.211 Q98.794,563.93 99.419,563.352 L99.419,566.07 Z " fill="#000"/><text x="111.773" y="556.436" fill="#000" font-size="12" textLength="65.08" font-style="italic" font-family="Arial">«Adaptee»</text><text x="120.21" y="572.261" fill="#000" font-size="14" textLength="48.207" font-family="Arial">Laptop</text><line x1="67.5" y1="580.563" x2="191.804" y2="580.563" style="stroke:#333;stroke-width:0.5;"/><line x1="67.5" y1="588.563" x2="191.804" y2="588.563" style="stroke:#333;stroke-width:0.5;"/><text x="72.5" y="605.558" fill="#000" font-size="14" textLength="114.304" font-family="Arial">+charge() : void</text></g><!--class Refrigerator--><g class="entity" data-qualified-name="Refrigerator" id="ent0007" data-source-line="47"><rect x="393" y="540.297" width="162.951" height="72.563" fill="#FDEBD0" style="stroke:#333;stroke-width:0.5;"/><ellipse cx="428.876" cy="560.43" rx="11" ry="11" fill="#ADD1B2" style="stroke:#181818;stroke-width:1;"/><path d="M431.845,566.07 Q431.266,566.367 430.626,566.508 Q429.985,566.664 429.282,566.664 Q426.782,566.664 425.454,565.023 Q424.141,563.367 424.141,560.242 Q424.141,557.117 425.454,555.461 Q426.782,553.805 429.282,553.805 Q429.985,553.805 430.626,553.961 Q431.282,554.117 431.845,554.414 L431.845,557.133 Q431.22,556.555 430.626,556.289 Q430.032,556.008 429.407,556.008 Q428.063,556.008 427.376,557.086 Q426.688,558.148 426.688,560.242 Q426.688,562.336 427.376,563.414 Q428.063,564.477 429.407,564.477 Q430.032,564.477 430.626,564.211 Q431.22,563.93 431.845,563.352 L431.845,566.07 Z " fill="#000"/><text x="457.255" y="556.436" fill="#000" font-size="12" textLength="65.08" font-style="italic" font-family="Arial">«Adaptee»</text><text x="447.515" y="572.261" fill="#000" font-size="14" textLength="84.561" font-family="Arial">Refrigerator</text><line x1="394" y1="580.563" x2="554.951" y2="580.563" style="stroke:#333;stroke-width:0.5;"/><line x1="394" y1="588.563" x2="554.951" y2="588.563" style="stroke:#333;stroke-width:0.5;"/><text x="399" y="605.558" fill="#000" font-size="14" textLength="150.951" font-family="Arial">+startCooling() : void</text></g><!--class SmartphoneCharger--><g class="entity" data-qualified-name="SmartphoneCharger" id="ent0008" data-source-line="51"><rect x="845.5" y="540.297" width="174.399" height="72.563" fill="#FDEBD0" style="stroke:#333;stroke-width:0.5;"/><ellipse cx="860.5" cy="560.43" rx="11" ry="11" fill="#ADD1B2" style="stroke:#181818;stroke-width:1;"/><path d="M863.469,566.07 Q862.891,566.367 862.25,566.508 Q861.609,566.664 860.906,566.664 Q858.406,566.664 857.078,565.023 Q855.766,563.367 855.766,560.242 Q855.766,557.117 857.078,555.461 Q858.406,553.805 860.906,553.805 Q861.609,553.805 862.25,553.961 Q862.906,554.117 863.469,554.414 L863.469,557.133 Q862.844,556.555 862.25,556.289 Q861.656,556.008 861.031,556.008 Q859.688,556.008 859,557.086 Q858.313,558.148 858.313,560.242 Q858.313,562.336 859,563.414 Q859.688,564.477 861.031,564.477 Q861.656,564.477 862.25,564.211 Q862.844,563.93 863.469,563.352 L863.469,566.07 Z " fill="#000"/><text x="913.16" y="556.436" fill="#000" font-size="12" textLength="65.08" font-style="italic" font-family="Arial">«Adaptee»</text><text x="874.5" y="572.261" fill="#000" font-size="14" textLength="142.399" font-family="Arial">SmartphoneCharger</text><line x1="846.5" y1="580.563" x2="1018.899" y2="580.563" style="stroke:#333;stroke-width:0.5;"/><line x1="846.5" y1="588.563" x2="1018.899" y2="588.563" style="stroke:#333;stroke-width:0.5;"/><text x="851.5" y="605.558" fill="#000" font-size="14" textLength="157.671" font-family="Arial">+chargePhone() : void</text></g><!--link Main to PowerOutlet--><g class="link" data-entity-1="ent0001" data-entity-2="ent0002" id="lnk9" data-source-line="55" data-link-type="dependency"><path d="M474.5,117.647 C474.5,143.507 474.5,173.257 474.5,199.087" style="stroke:#333;stroke-width:1;stroke-dasharray:7,7;" fill="none" id="Main-to-PowerOutlet" codeLine="55"/><polygon points="474.5,204.087,478.5,195.087,474.5,199.087,470.5,195.087,474.5,204.087" fill="#333" style="stroke:#333;stroke-width:1;stroke-linejoin:miter;stroke-miterlimit:10;"/><text x="475.5" y="165.364" fill="#000" font-size="13" textLength="29.783" font-family="Arial">uses</text></g><!--reverse link PowerOutlet to LaptopAdapter--><g class="link" data-entity-1="ent0002" data-entity-2="ent0003" id="lnk10" data-source-line="57" data-link-type="extension"><path d="M397.255,277.172 C349.855,298.882 299.13,322.107 242.04,348.257" style="stroke:#333;stroke-width:1;stroke-dasharray:7,7;" fill="none" id="PowerOutlet-backto-LaptopAdapter" codeLine="57"/><polygon points="413.62,269.677,394.756,271.717,399.753,282.627,413.62,269.677" fill="none" style="stroke:#333;stroke-width:1;stroke-linejoin:miter;stroke-miterlimit:10;"/></g><!--reverse link PowerOutlet to RefrigeratorAdapter--><g class="link" data-entity-1="ent0002" data-entity-2="ent0004" id="lnk11" data-source-line="58" data-link-type="extension"><path d="M474.5,295.647 C474.5,316.497 474.5,325.137 474.5,348.207" style="stroke:#333;stroke-width:1;stroke-dasharray:7,7;" fill="none" id="PowerOutlet-backto-RefrigeratorAdapter" codeLine="58"/><polygon points="474.5,277.647,468.5,295.647,480.5,295.647,474.5,277.647" fill="none" style="stroke:#333;stroke-width:1;stroke-linejoin:miter;stroke-miterlimit:10;"/></g><!--reverse link PowerOutlet to SmartphoneAdapter--><g class="link" data-entity-1="ent0002" data-entity-2="ent0005" id="lnk12" data-source-line="59" data-link-type="extension"><path d="M552.336,268.647 C615.236,290.347 698.85,319.197 783.08,348.247" style="stroke:#333;stroke-width:1;stroke-dasharray:7,7;" fill="none" id="PowerOutlet-backto-SmartphoneAdapter" codeLine="59"/><polygon points="535.32,262.777,550.379,274.319,554.293,262.975,535.32,262.777" fill="none" style="stroke:#333;stroke-width:1;stroke-linejoin:miter;stroke-miterlimit:10;"/></g><!--link LaptopAdapter to Laptop--><g class="link" data-entity-1="ent0003" data-entity-2="ent0006" id="lnk13" data-source-line="61" data-link-type="dependency"><path d="M129.5,453.527 C129.5,481.477 129.5,510.277 129.5,535.247" style="stroke:#333;stroke-width:1;" fill="none" id="LaptopAdapter-to-Laptop" codeLine="61"/><polygon points="129.5,540.247,133.5,531.247,129.5,535.247,125.5,531.247,129.5,540.247" fill="#333" style="stroke:#333;stroke-width:1;stroke-linejoin:miter;stroke-miterlimit:10;"/><text x="130.5" y="501.364" fill="#000" font-size="13" textLength="53.53" font-family="Arial">adaptee</text></g><!--link RefrigeratorAdapter to Refrigerator--><g class="link" data-entity-1="ent0004" data-entity-2="ent0007" id="lnk14" data-source-line="62" data-link-type="dependency"><path d="M474.5,453.527 C474.5,481.477 474.5,510.277 474.5,535.247" style="stroke:#333;stroke-width:1;" fill="none" id="RefrigeratorAdapter-to-Refrigerator" codeLine="62"/><polygon points="474.5,540.247,478.5,531.247,474.5,535.247,470.5,531.247,474.5,540.247" fill="#333" style="stroke:#333;stroke-width:1;stroke-linejoin:miter;stroke-miterlimit:10;"/><text x="475.5" y="501.364" fill="#000" font-size="13" textLength="53.53" font-family="Arial">adaptee</text></g><!--link SmartphoneAdapter to SmartphoneCharger--><g class="link" data-entity-1="ent0005" data-entity-2="ent0008" id="lnk15" data-source-line="63" data-link-type="dependency"><path d="M932.5,453.527 C932.5,481.477 932.5,510.277 932.5,535.247" style="stroke:#333;stroke-width:1;" fill="none" id="SmartphoneAdapter-to-SmartphoneCharger" codeLine="63"/><polygon points="932.5,540.247,936.5,531.247,932.5,535.247,928.5,531.247,932.5,540.247" fill="#333" style="stroke:#333;stroke-width:1;stroke-linejoin:miter;stroke-miterlimit:10;"/><text x="933.5" y="501.364" fill="#000" font-size="13" textLength="53.53" font-family="Arial">adaptee</text></g><?plantuml-src ZLJVQzim47xtNt7G5uUH4DgDGGY1nAwXq6sXwTlOWsPV7555CYUvWNNzttUMuywEGnpxmSRwVfpkFjb9fn2McIWS4go5uuUUmLgLUIvr3Z6-oXGjIEqChCs1GJzAfZWR1FP5waAGs8FTYSmSAlnMA8kjbLG9QvVEaVnTEdn8ZTx8FmZJ5YJ3hIYLIunstyMUYo4fL6kTJAcpo91cxpPlIMGEaL66uERENwU-y1O0h0nbI5tSUml9EqFQYXIlGckJeSK2FdzfLoZqI_NnwpG8QkDlGcgOpoCbKRl50cwIs-hs5f_WpJhXPFeEUuQ5Wd8BCzXmZtJ-yzU8tr-DpDWs-5-RRttTUTPzPWvwtJYwNoNBesx1KtlGOLkXBkUHnskAPihp-V7D2oJ9RPnuWJ4eZsDwJV2Y7MvuWXXTzdt2BSaSIJX3m-xKGhDKc-njpgY55pW3jMtsWbonCng7AxCVs6XNjRwosfn-ytOzrV0gxkYQ-NqKY3vHyVqgdXuddtgPWGbSu7CWoKN6A8xWnLurUnWgPLs1Eqh-I4mcYqwKPr1Qv5z99zv_9vDkwlhBPwBG1_Lc4GJTWp0UBvhMpa3K-mdEPRO2FdMJri3xCQh0cpD3RnZ_0000?></g></svg>